<svg width="24" height="24" viewBox="0 0 24 24" fill="none" xmlns="http://www.w3.org/2000/svg">
<path d="M24 0H0V24H24V0Z" fill="white" fill-opacity="0.01"/>
<path d="M12 22C17.5229 22 22 17.5229 22 12C22 6.47715 17.5229 2 12 2C6.47715 2 2 6.47715 2 12C2 17.5229 6.47715 22 12 22Z" stroke="#9DA1FF" stroke-width="1.5" stroke-linejoin="round"/>
<path d="M13.7119 15.9091L13.7119 17.8458C13.7119 17.8458 13.7072 17.9498 13.9103 17.9923C14.0803 18.0301 14.2456 17.9167 14.2456 17.9167C14.3164 17.8647 17.6789 15.4934 17.6789 15.4934C17.6789 15.4934 18 15.328 18 15.0068C18 14.6903 17.7733 14.5628 17.7733 14.5628L14.3211 12.2009C14.3211 12.2009 14.1039 12.1205 13.915 12.1583C13.7119 12.2009 13.7166 12.3473 13.7166 12.3473L13.7166 14.1612L10.3589 14.1612C10.3589 14.1612 7.70956 13.807 7.70956 12.8291C7.70956 12.8291 7.75207 15.9043 10.4439 15.9043L13.7119 15.9091ZM10.2739 8.09111L10.2739 6.14961C10.2739 6.14961 10.2361 6.03151 10.0236 6.00317C9.87722 5.98427 9.78749 6.05513 9.75915 6.07875C9.68831 6.13071 6.32113 8.5068 6.32113 8.5068C6.32113 8.5068 6 8.67214 6 8.99336C6 9.30986 6.22668 9.4374 6.22668 9.4374L9.68359 11.7993C9.68359 11.7993 9.82527 11.8844 10.0236 11.8371C10.2645 11.7757 10.2739 11.6529 10.2739 11.6529L10.2739 9.83893L13.6505 9.83893C13.6505 9.83893 16.2999 10.1932 16.2999 11.1711C16.2999 11.1711 16.2574 8.09111 13.5655 8.09111" fill="#9DA1FF"/>
</svg>
