<svg width="34" height="34" viewBox="0 0 34 34" fill="none" xmlns="http://www.w3.org/2000/svg">
<circle cx="17" cy="17" r="16" fill="#1BA27A" stroke="white"/>
<path fill-rule="evenodd" clip-rule="evenodd" d="M18.7566 15.2218C18.7566 15.2218 25.294 15.4498 25.9166 17.0458C25.9166 17.0458 26.8186 18.6439 18.7566 19.147V25.946H15.2364V19.147C15.2364 19.147 8.14824 18.8719 8.05445 17.1834C7.97463 15.6935 14.4123 15.1982 15.2364 15.1962V15.2198C15.3581 15.2041 15.3482 15.1962 15.2364 15.1962V13.1677H10.3254V9.97363H23.6676V13.1677H18.7566V15.2218ZM9.1456 17.4023C10.7919 18.6248 17.1497 18.5993 17.1497 18.5993C25.2417 18.4165 24.9643 17.0466 24.9643 17.0466C24.8725 15.769 18.7562 15.541 18.7562 15.541V18.0077H15.234V15.543C11.7139 15.6334 9.78218 16.3527 9.78218 16.3527C8.36135 16.8893 9.1456 17.4023 9.1456 17.4023Z" fill="white"/>
</svg>
